HIERARCHY
ROOT Hips
{
	OFFSET 52.427502 -16.807114 85.298103
	CHANNELS 6 Xposition Yposition Zposition Xrotation Yrotation Zrotation
	JOINT spine
	{
		OFFSET 0.000000 -0.367607 6.392601
		CHANNELS 3 Xrotation Yrotation Zrotation
		JOINT spine1
		{
			OFFSET 0.000000 -0.000002 9.176109
			CHANNELS 3 Xrotation Yrotation Zrotation
			JOINT spine2
			{
				OFFSET 0.000000 0.000000 8.792381
				CHANNELS 3 Xrotation Yrotation Zrotation
				JOINT Neck
				{
					OFFSET 0.000000 -1.076244 22.573700
					CHANNELS 3 Xrotation Yrotation Zrotation
					JOINT Head
					{
						OFFSET 0.000000 -0.000002 6.820114
						CHANNELS 3 Xrotation Yrotation Zrotation
						End Site
						{
							OFFSET 0.000000 5.444267 16.508499
						}
					}
				}
				JOINT RightShoulder
				{
					OFFSET -3.702209 0.515507 9.495087
					CHANNELS 3 Xrotation Yrotation Zrotation
					JOINT RightArm
					{
						OFFSET 0.000000 -0.000002 12.453705
						CHANNELS 3 Xrotation Yrotation Zrotation
						JOINT RightArmRoll
						{
							OFFSET 0.000000 -0.000002 6.286865
							CHANNELS 3 Xrotation Yrotation Zrotation
							JOINT RightForeArm
							{
								OFFSET 0.000000 -0.000002 18.311401
								CHANNELS 3 Xrotation Yrotation Zrotation
								JOINT RightForeArmRoll
								{
									OFFSET 0.000000 -0.000002 7.054825
									CHANNELS 3 Xrotation Yrotation Zrotation
									JOINT RightHand
									{
										OFFSET 0.000000 -0.000002 14.157501
										CHANNELS 3 Xrotation Yrotation Zrotation
										End Site
										{
											OFFSET 0.000000 0.000000 0.100006
										}
									}
								}
							}
						}
					}
				}
				JOINT LeftShoulder
				{
					OFFSET 3.702209 0.515507 9.495087
					CHANNELS 3 Xrotation Yrotation Zrotation
					JOINT LeftArm
					{
						OFFSET 0.000000 -0.000002 12.453705
						CHANNELS 3 Xrotation Yrotation Zrotation
						JOINT LeftArmRoll
						{
							OFFSET 0.000000 -0.000002 6.286865
							CHANNELS 3 Xrotation Yrotation Zrotation
							JOINT LeftForeArm
							{
								OFFSET 0.000000 -0.000002 18.311401
								CHANNELS 3 Xrotation Yrotation Zrotation
								JOINT LeftForeArmRoll
								{
									OFFSET 0.000000 -0.000002 7.054825
									CHANNELS 3 Xrotation Yrotation Zrotation
									JOINT LeftHand
									{
										OFFSET 0.000000 -0.000002 14.157501
										CHANNELS 3 Xrotation Yrotation Zrotation
										End Site
										{
											OFFSET 0.000000 0.000000 0.100006
										}
									}
								}
							}
						}
					}
				}
			}
		}
	}
	JOINT RightUpLeg
	{
		OFFSET -5.666161 0.871610 -1.039032
		CHANNELS 3 Xrotation Yrotation Zrotation
		JOINT RightUpLegRoll
		{
			OFFSET 0.000000 -0.000003 16.600502
			CHANNELS 3 Xrotation Yrotation Zrotation
			JOINT RightLeg
			{
				OFFSET 0.000000 0.000003 -20.557198
				CHANNELS 3 Xrotation Yrotation Zrotation
				JOINT RightLegRoll
				{
					OFFSET 0.000000 -0.000003 20.624397
					CHANNELS 3 Xrotation Yrotation Zrotation
					JOINT RightFoot
					{
						OFFSET 0.000000 -0.000003 17.166397
						CHANNELS 3 Xrotation Yrotation Zrotation
						JOINT RightToeBase
						{
							OFFSET 0.000000 -0.000003 14.350204
							CHANNELS 3 Xrotation Yrotation Zrotation
							End Site
							{
								OFFSET 0.006081 0.801060 6.949707
							}
						}
					}
				}
			}
		}
	}
	JOINT LeftUpLeg
	{
		OFFSET 5.666161 0.871610 -1.039032
		CHANNELS 3 Xrotation Yrotation Zrotation
		JOINT LeftUpLegRoll
		{
			OFFSET 0.000000 -0.000003 16.600601
			CHANNELS 3 Xrotation Yrotation Zrotation
			JOINT LeftLeg
			{
				OFFSET 0.000000 -0.000004 20.557098
				CHANNELS 3 Xrotation Yrotation Zrotation
				JOINT LeftLegRoll
				{
					OFFSET 0.000000 -0.000003 20.815102
					CHANNELS 3 Xrotation Yrotation Zrotation
					JOINT LeftFoot
					{
						OFFSET 0.000000 -0.000003 16.975708
						CHANNELS 3 Xrotation Yrotation Zrotation
						JOINT LeftToeBase
						{
							OFFSET 0.000000 -0.000003 14.350204
							CHANNELS 3 Xrotation Yrotation Zrotation
							End Site
							{
								OFFSET -0.027260 0.801060 6.949707
							}
						}
					}
				}
			}
		}
	}
}
MOTION
Frames: 4
Frame Time: 0.041667
52.244404 -9.446153 85.301598 -0.544028 0.733202 -2.052628 -1.653802 0.407053 -0.242128 0.696905 0.815168 -0.470077 2.342024 0.809440 -0.480017 10.615775 -6.729442 -0.057634 5.616067 3.752194 0.229367 -7.256862 -67.465644 -9.177863 -53.170181 -113.051454 -49.250069 0.000001 0.000000 -0.000005 6.871111 -16.090085 0.774871 0.000002 0.000002 -3.008259 -5.000212 -7.998854 0.000176 -0.137262 56.373325 -0.170812 -38.595903 115.276887 36.721610 -0.000002 -0.000005 0.000004 6.807348 11.763637 -0.176144 -0.000002 0.000001 3.001089 -5.000220 7.998723 -0.000172 -1.641063 178.874458 -1.224446 -179.999991 0.000005 -0.965005 172.375711 -4.509935 -0.691051 0.000002 0.000000 0.174774 70.105424 7.609210 0.139299 25.460975 -7.348765 0.005316 0.147760 -179.615001 3.372402 -0.000005 -0.000004 -1.041570 -7.041651 1.745373 0.495549 0.000000 -0.000003 -0.191484 71.263687 -7.463122 -0.398050 25.463555 7.352984 -0.004076 
52.251904 -9.451065 85.300499 -0.523111 0.732540 -2.054012 -1.655451 0.406676 -0.242215 0.693612 0.814712 -0.471015 2.338734 0.808977 -0.480935 10.623184 -6.727362 -0.060293 5.598388 3.748545 0.227064 -7.250530 -67.472673 -9.171220 -53.180399 -113.057874 -49.261220 0.000002 -0.000001 -0.000004 6.879165 -16.088041 0.775427 0.000002 0.000002 -3.008260 -5.000213 -7.998855 0.000176 -0.149638 56.371013 -0.156369 -38.585842 115.274974 36.718865 0.000000 -0.000005 0.000004 6.820404 11.769284 -0.177593 -0.000005 0.000001 3.001091 -5.000221 7.998723 -0.000171 -1.667521 178.870483 -1.229590 -179.999991 0.000005 -0.965005 172.369154 -4.506899 -0.691170 0.000001 0.000001 0.174692 70.107036 7.612714 0.129804 25.460975 -7.348765 0.005316 0.109992 -179.613006 3.374832 -0.000005 -0.000004 -1.040601 -7.072146 1.745367 0.496783 -0.000000 -0.000003 -0.192013 71.276801 -7.463257 -0.395995 25.463560 7.352983 -0.004076 
52.248405 -9.448164 85.301300 -0.503304 0.732102 -2.055669 -1.656919 0.406234 -0.242347 0.690669 0.814159 -0.472081 2.335793 0.808413 -0.481979 10.631078 -6.724553 -0.062559 5.580745 3.744597 0.225078 -7.241799 -67.479605 -9.161870 -53.188561 -113.064814 -49.269867 0.000001 -0.000001 -0.000005 6.887261 -16.085797 0.775950 0.000002 0.000002 -3.008259 -5.000212 -7.998855 0.000176 -0.163166 56.369087 -0.140517 -38.575785 115.273062 36.716051 -0.000002 -0.000006 0.000004 6.833237 11.774940 -0.179010 0.000000 0.000001 3.001089 -5.000221 7.998724 -0.000171 -1.692417 178.865497 -1.234621 -179.999991 0.000005 -0.965005 172.363198 -4.504847 -0.691372 0.000001 0.000000 0.174569 70.108415 7.616152 0.120517 25.460973 -7.348764 0.005316 0.073931 -179.610998 3.376782 -0.000005 -0.000004 -1.039600 -7.101929 1.745562 0.497992 0.000000 -0.000003 -0.192523 71.289908 -7.463354 -0.393932 25.463558 7.352983 -0.004076 
52.248703 -9.451562 85.298798 -0.484278 0.731821 -2.057504 -1.658271 0.405747 -0.242509 0.687972 0.813535 -0.473237 2.333092 0.807779 -0.483111 10.639163 -6.721221 -0.064571 5.563118 3.740429 0.223317 -7.231367 -67.486408 -9.150588 -53.196706 -113.071753 -49.278258 0.000002 -0.000001 -0.000005 6.895368 -16.083349 0.776435 0.000005 0.000002 -3.008260 -5.000212 -7.998856 0.000176 -0.177505 56.367277 -0.123674 -38.565905 115.271217 36.713322 -0.000001 -0.000006 0.000004 6.845920 11.780798 -0.180441 -0.000001 0.000001 3.001090 -5.000224 7.998724 -0.000171 -1.716215 178.860511 -1.239600 -179.999991 0.000005 -0.965005 172.357706 -4.501824 -0.691407 0.000002 0.000000 0.174417 70.109638 7.619451 0.111514 25.460971 -7.348764 0.005317 0.039070 -179.609004 3.378375 -0.000005 -0.000004 -1.038580 -7.131216 1.745907 0.499185 0.000000 -0.000003 -0.193020 71.302824 -7.463518 -0.391694 25.463553 7.352985 -0.004076 
